<?xml version="1.0" encoding="UTF-8"?>
<svg id="Layer_1" data-name="Layer 1" xmlns="http://www.w3.org/2000/svg" viewBox="0 0 850.3937008 850.3937008">
  <defs>
    <style>
      .cls-1, .cls-2 {
        font-family: FiraSans-Bold, 'Fira Sans';
        font-size: 100px;
        font-weight: 700;
      }

      .cls-1, .cls-2, .cls-3 {
        fill: #ffd300;
      }

      .cls-2 {
        letter-spacing: .0480078em;
      }

      .cls-4 {
        letter-spacing: .0319971em;
      }

      .cls-5 {
        letter-spacing: .0110059em;
      }

      .cls-6 {
        letter-spacing: .022002em;
      }

      .cls-7 {
        fill: #0ad9e4;
      }

      .cls-7, .cls-3 {
        stroke-width: 0px;
      }

      .cls-8 {
        letter-spacing: .032002em;
      }

      .cls-9 {
        letter-spacing: .0319922em;
      }

      .cls-10 {
        letter-spacing: .0190186em;
      }
    </style>
  </defs>
  <text class="cls-2" transform="translate(269.3996005 573.6396605)"><tspan x="0" y="0">TRADE</tspan></text>
  <text class="cls-1" transform="translate(282.7987705 672.0655638)"><tspan class="cls-8" x="0" y="0">A</tspan><tspan class="cls-6" x="62.199707" y="0">E</tspan><tspan class="cls-5" x="116.9985352" y="0">S</tspan><tspan class="cls-4" x="175.2983398" y="0">T</tspan><tspan class="cls-10" x="232.4975586" y="0">R</tspan><tspan class="cls-9" x="296.0981445" y="0">O</tspan></text>
  <g>
    <g>
      <path class="cls-3" d="M238.2370456,632.7586467c.6404102.7112449,1.7928908.5697367,2.2422103-.2753115l5.9688492-11.2257871v-21.8915405h-17.2359619v23.3695068l9.0249023,10.0231323Z"/>
      <path class="cls-3" d="M241.4362643,640.2784831c-.4493207.8450441-1.6017968.9865508-2.242206.275309l-1.8899961-2.0990395-8.0919189-8.9870605v42.5980835h17.2359619v-41.2131348l-5.0118408,9.4258423Z"/>
    </g>
    <g>
      <polygon class="cls-3" points="202.3970797 628.7386882 202.3970797 639.4336955 209.0800631 628.7386882 202.3970797 628.7386882"/>
      <polygon class="cls-3" points="202.3970797 647.93455 202.3970797 672.0657756 219.6330417 672.0657756 219.6330417 628.7386882 214.3920138 628.7386882 202.3970797 647.93455"/>
    </g>
    <path class="cls-3" d="M262.9107788,609.4862117l-3.9773908-2.1148027-18.4214669,34.6457419-19.0929125-21.204706c-.6133548-.6811956-1.7083092-.5853987-2.1940562.1919566l-16.8278751,26.9301444v8.5006282l17.4801589-27.9741051c.4857468-.7773574,1.5807036-.8731546,2.1940586-.1919569l19.3976763,21.5432379,21.4418078-40.3261383Z"/>
    <path class="cls-3" d="M256.0272677,576.0217692v23.0482788l14.1069336-12.7642212-3.3134766,23.1671143c-.1353061.9460313-1.1685715,1.4709185-2.012365,1.0222587l-5.8749641-3.1238212-2.9061279,5.4655762v59.2288208h17.2359619v-96.0440063h-17.2359619Z"/>
  </g>
  <g>
    <path class="cls-7" d="M588.9910887,330.9697019h-52.0818561c-.7827658,0-1.4173228-.634557-1.4173228-1.4173228v-146.9737781c0-2.3482974,1.9036711-4.2519685,4.2519685-4.2519685h46.4125647c2.3482974,0,4.2519685,1.9036711,4.2519685,4.2519685v146.9737781c0,.7827658-.634557,1.4173228-1.4173228,1.4173228Z"/>
    <path class="cls-7" d="M510.8981865,465.4296635l-43.1423083-116.9423403c-.2818173-.7638991-1.3787323-.7136177-1.589482.0728601l-24.1279515,90.0409274c-.2108838.7869784-.1868266,1.6184705.069205,2.3919398l8.0651175,24.3646508c.7682075,2.3207483,2.9375011,3.8877272,5.3820901,3.8877272h52.6838892c1.9727406,0,3.3422392-1.9649568,2.65944-3.8157649Z"/>
    <path class="cls-7" d="M586.1564431,469.1884916h-46.4125647c-2.3482974,0-4.2519685-1.9036711-4.2519685-4.2519685v-88.7247678c0-.7827658.634557-1.4173228,1.4173228-1.4173228h52.0818561c.7827658,0,1.4173228.634557,1.4173228,1.4173228v88.7247678c0,2.3482974-1.9036711,4.2519685-4.2519685,4.2519685Z"/>
    <path class="cls-7" d="M584.1478815,345.5779981l-60.7894272-.0000899c-2.8269505-.0000042-5.4618511,1.4306483-7.0014899,3.8015471l-9.5922834,14.7712131c-.3769336.5804422-1.2555589.4778841-1.4886757-.1737666l-33.052143-92.3934124c-2.7569229-7.7066567-13.8052078-7.2549164-15.9237631.6510879l-37.2798605,139.1206264c-.2138903.7992129-1.335107.8334533-1.597527.0487993l-26.3764447-78.8328534c-3.5229143-10.529144-17.9905464-11.6043265-23.0311414-1.7115918l-8.547939,16.7762918c-2.5195918,4.9449823-7.3318602,8.3145706-12.8403744,8.9909315l-10.739398,1.3186331c-1.0323923.1267619-1.8451138-.8646945-1.5182514-1.8521475l37.1264646-112.1592502c.8579336-2.591822,4.5241562-2.5918234,5.3820918-.0000021l38.8299943,117.30532c.2604292.7867559,1.3842839.7542397,1.5987896-.0462574l22.8551636-85.2914369c.2233174-.8333811.1828828-1.7154889-.1157399-2.524945l-33.6874994-91.3143982c-.8214265-2.2265845-2.9427991-3.7058832-5.3160709-3.7070604l-53.6967764-.0266358c-2.3753282-.0011783-4.4995503,1.4785394-5.3216921,3.707052l-104.5383094,283.3634547c-.6827992,1.8508081.6866994,3.815765,2.65944,3.815765h52.6838804c2.4445932,0,4.6138895-1.5669842,5.3820937-3.8877381l29.8123702-90.0635253c.3444114-1.040471,1.2577673-1.789172,2.3455902-1.92274l21.3416188-2.6204232c8.2632014-1.0145943,15.4819984-6.0691948,19.2616631-13.4870134l6.8962247-13.5342543c.3357539-.6594652,1.3002375-.587749,1.5353371.1141348l31.645335,94.5829963c2.625128,7.8461002,13.838103,7.5036887,15.9795921-.4879701l37.0111791-138.1191824c.2112136-.788212,1.3107382-.8381338,1.5925101-.0723049l30.5521511,83.0377938c2.3737387,6.4515924,11.091637,7.4294935,14.8357694,1.6641529l14.5029068-22.3320625c.7697749-1.1853253,2.0871102-1.9005706,3.5004571-1.9005683l55.1241843.0000899c3.457685.0000056,6.2606956-2.8030003,6.2606956-6.2606854v-2.0868695c0-3.4576882-2.8030074-6.2606997-6.2606956-6.2607048Z"/>
  </g>
</svg>